<svg id="SvgjsSvg1074" width="288" height="288" xmlns="http://www.w3.org/2000/svg" version="1.1" xmlns:xlink="http://www.w3.org/1999/xlink" xmlns:svgjs="http://svgjs.com/svgjs"><defs id="SvgjsDefs1075"></defs><g id="SvgjsG1076"><svg xmlns="http://www.w3.org/2000/svg" width="288" height="288" fill="none" viewBox="0 0 48 48"><path fill="#95cdd2" d="M26 22H18V14H26C28.2091 14 30 15.7909 30 18C30 20.2091 28.2091 22 26 22Z" class="color333 svgShape"></path><path fill="#95cdd2" fill-rule="evenodd" d="M48 0H0V48H48V0ZM16 10C14.8954 10 14 10.8954 14 12V36C14 37.1046 14.8954 38 16 38C17.1046 38 18 37.1046 18 36V26H26C30.4183 26 34 22.4183 34 18C34 13.5817 30.4183 10 26 10H16Z" clip-rule="evenodd" class="color333 svgShape"></path></svg></g></svg>